<svg width="287" height="67" viewBox="0 0 287 67" fill="none" xmlns="http://www.w3.org/2000/svg">
<rect x="20.0295" width="266.171" height="66.8816" rx="8" fill="white"/>
<g filter="url(#filter0_d)">
<circle cx="20.8166" cy="32.0173" r="16.3932" fill="#32324A"/>
</g>
<path d="M21.1427 26.8251C22.048 26.8251 22.79 27.0864 23.3687 27.6091C23.9567 28.1224 24.2507 28.8131 24.2507 29.6811C24.2507 30.5398 23.9193 31.3238 23.2567 32.0331C22.93 32.3784 22.2393 32.9104 21.1847 33.6291C19.766 34.5904 18.9773 35.4584 18.8187 36.2331H24.2647V37.0171H17.7687C17.7687 36.1584 18.1 35.3651 18.7627 34.6371C19.1733 34.1704 19.8733 33.5964 20.8627 32.9151C21.7027 32.3178 22.2673 31.8744 22.5567 31.5851C23.1073 30.9878 23.3827 30.3484 23.3827 29.6671C23.3827 29.0044 23.1773 28.4911 22.7667 28.1271C22.3653 27.7631 21.8193 27.5811 21.1287 27.5811C20.4007 27.5811 19.8267 27.8238 19.4067 28.3091C18.9587 28.7944 18.7347 29.5038 18.7347 30.4371H17.8667C17.8667 29.3171 18.1747 28.4351 18.7907 27.7911C19.3787 27.1471 20.1627 26.8251 21.1427 26.8251Z" fill="white"/>
<mask id="mask0" mask-type="alpha" maskUnits="userSpaceOnUse" x="20" y="0" width="267" height="67">
<rect x="20.0295" width="266.171" height="66.8816" rx="8" fill="white"/>
</mask>
<g mask="url(#mask0)">
<circle cx="208.86" cy="27.51" r="15.4443" fill="url(#paint0_linear)"/>
<circle cx="244.172" cy="54.3191" r="42.2531" fill="url(#paint1_linear)"/>
<circle cx="285.226" cy="57.1304" r="24.4777" fill="url(#paint2_linear)"/>
<circle cx="198.407" cy="54.1829" r="8.74203" fill="url(#paint3_linear)"/>
</g>
<defs>
<filter id="filter0_d" x="0.42334" y="11.624" width="42.7865" height="42.7865" filterUnits="userSpaceOnUse" color-interpolation-filters="sRGB">
<feFlood flood-opacity="0" result="BackgroundImageFix"/>
<feColorMatrix in="SourceAlpha" type="matrix" values="0 0 0 0 0 0 0 0 0 0 0 0 0 0 0 0 0 0 127 0" result="hardAlpha"/>
<feOffset dx="1" dy="1"/>
<feGaussianBlur stdDeviation="2.5"/>
<feComposite in2="hardAlpha" operator="out"/>
<feColorMatrix type="matrix" values="0 0 0 0 0 0 0 0 0 0 0 0 0 0 0 0 0 0 0.2 0"/>
<feBlend mode="normal" in2="BackgroundImageFix" result="effect1_dropShadow"/>
<feBlend mode="normal" in="SourceGraphic" in2="effect1_dropShadow" result="shape"/>
</filter>
<linearGradient id="paint0_linear" x1="227.418" y1="55.2848" x2="193.416" y2="7.56122" gradientUnits="userSpaceOnUse">
<stop stop-color="#FBCF31"/>
<stop offset="1" stop-color="#FBE731" stop-opacity="0"/>
</linearGradient>
<linearGradient id="paint1_linear" x1="294.944" y1="130.307" x2="201.919" y2="-0.257917" gradientUnits="userSpaceOnUse">
<stop stop-color="#FFA944"/>
<stop offset="1" stop-color="#FFC34E" stop-opacity="0"/>
</linearGradient>
<linearGradient id="paint2_linear" x1="311.732" y1="72.6518" x2="246.8" y2="68.6314" gradientUnits="userSpaceOnUse">
<stop stop-color="#DADAFF"/>
<stop offset="1" stop-color="#EEEEFF" stop-opacity="0"/>
</linearGradient>
<linearGradient id="paint3_linear" x1="207.874" y1="59.7263" x2="184.684" y2="58.2905" gradientUnits="userSpaceOnUse">
<stop stop-color="#DADAFF"/>
<stop offset="1" stop-color="#EEEEFF" stop-opacity="0"/>
</linearGradient>
</defs>
</svg>
