<?xml version="1.0" encoding="utf-8"?>
<!-- Generator: Adobe Illustrator 23.0.2, SVG Export Plug-In . SVG Version: 6.00 Build 0)  -->
<svg version="1.1" id="图层_1" xmlns="http://www.w3.org/2000/svg" xmlns:xlink="http://www.w3.org/1999/xlink" x="0px" y="0px"
	 viewBox="0 0 96 96" style="enable-background:new 0 0 96 96;" xml:space="preserve">
<style type="text/css">
	.st0{fill:none;}
	.st1{fill:#1BA27A;}
	.st2{fill:#FFFFFF;}
</style>
<rect class="st0" width="96" height="96"/>
<g>
	<path class="st1" d="M81,48c0,18.23-14.77,33-33,33S15,66.23,15,48s14.77-33,33-33S81,29.77,81,48"/>
	<path class="st2" d="M63.49,31.64H32.24v7.54H44.1v11.09h7.54V39.19h11.85V31.64z"/>
	<path class="st2" d="M47.94,51.45c-9.8,0-17.75-1.55-17.75-3.47c0-1.91,7.95-3.47,17.75-3.47s17.75,1.55,17.75,3.47
		C65.69,49.9,57.74,51.45,47.94,51.45 M67.87,48.56c0-2.47-8.92-4.47-19.93-4.47s-19.93,2-19.93,4.47c0,2.17,6.92,3.99,16.09,4.39
		v15.92h7.54V52.96C60.88,52.57,67.87,50.75,67.87,48.56"/>
</g>
</svg>
