<?xml version="1.0" encoding="utf-8"?>
<!-- Generator: Adobe Illustrator 23.0.2, SVG Export Plug-In . SVG Version: 6.00 Build 0)  -->
<svg version="1.1" id="图层_1" xmlns="http://www.w3.org/2000/svg" xmlns:xlink="http://www.w3.org/1999/xlink" x="0px" y="0px"
	 viewBox="0 0 96 96" style="enable-background:new 0 0 96 96;" xml:space="preserve">
<style type="text/css">
	.st0{fill:none;}
	.st1{fill:#00CCFF;}
	.st2{fill:url(#SVGID_1_);}
	.st3{fill:url(#SVGID_2_);}
</style>
<rect class="st0" width="96" height="96"/>
<g>
	<polygon class="st1" points="48.35,5 7.38,22.46 48.35,43.17 89.33,22.46 	"/>
	<linearGradient id="SVGID_1_" gradientUnits="userSpaceOnUse" x1="48.3537" y1="57.1022" x2="89.3691" y2="57.1022">
		<stop  offset="0" style="stop-color:#6446E4"/>
		<stop  offset="1" style="stop-color:#697EFD"/>
	</linearGradient>
	<path class="st2" d="M62.49,59.8v-3.78l24.77-12.46c2.56-11.9,2.07-21.1,2.07-21.1L48.35,43.17v48.57
		c5.39-1.96,10.07-4.49,14.14-7.41v-6.88l13.37-6.73c5.14-7.34,8.33-15.35,10.32-22.7L62.49,59.8z"/>
	<linearGradient id="SVGID_2_" gradientUnits="userSpaceOnUse" x1="7.3386" y1="57.1022" x2="48.3537" y2="57.1022">
		<stop  offset="0" style="stop-color:#6446E4"/>
		<stop  offset="1" style="stop-color:#697EFD"/>
	</linearGradient>
	<path class="st3" d="M7.38,22.46c0,0-0.51,9.41,2.16,21.51l23.96,12.05v3.78L10.64,48.45c2.04,7.42,5.33,15.49,10.6,22.85
		l12.25,6.16v6.35c4.23,3.14,9.15,5.86,14.86,7.94V43.17L7.38,22.46z"/>
</g>
</svg>
