<?xml version="1.0" encoding="utf-8"?>
<!-- Generator: Adobe Illustrator 23.0.2, SVG Export Plug-In . SVG Version: 6.00 Build 0)  -->
<svg version="1.1" id="图层_1" xmlns="http://www.w3.org/2000/svg" xmlns:xlink="http://www.w3.org/1999/xlink" x="0px" y="0px"
	 viewBox="0 0 96 96" style="enable-background:new 0 0 96 96;" xml:space="preserve">
<style type="text/css">
	.st0{fill:none;}
	.st1{fill:url(#SVGID_1_);}
</style>
<rect class="st0" width="96" height="96"/>
<linearGradient id="SVGID_1_" gradientUnits="userSpaceOnUse" x1="48.0117" y1="74.1897" x2="48.0117" y2="21.8203" gradientTransform="matrix(1 0 0 -1 0 96)">
	<stop  offset="0" style="stop-color:#E73F41"/>
	<stop  offset="1" style="stop-color:#851C6C"/>
</linearGradient>
<path class="st1" d="M13.06,46.23c0.13-0.45,0.26-0.9,0.37-1.36c1.29-5.36,5.56-9.22,11.17-10.09c0.87-0.13,1.73-0.22,2.88-0.37
	c0-2.07,0-4.21,0-6.33c0-2.1,0-4.21,0-6.28c5.2,0,10.15,0,15.17,0c0.05,0.46,0.1,0.76,0.1,1.07c0.06,5.21,0.1,10.43,0.17,15.64
	c0.01,0.71-0.2,1.17-0.79,1.58c-1.49,1.04-2.94,2.14-4.63,3.39c0-5.5,0-10.72,0-16.05c-1.33,0-2.51-0.02-3.68,0.01
	c-0.83,0.02-0.62,0.69-0.62,1.16c-0.02,5.37-0.07,10.75-0.02,16.13c0.01,1.08-0.27,1.69-1.29,2.04c-1.4,0.48-2.78,1.07-4.4,1.71
	c0-2.99,0-5.68,0-8.63c-1.11,0.17-2.06,0.2-2.94,0.46c-4.12,1.25-6.75,5.98-5.69,10.16c0.75,2.94,3.26,4.78,6.74,4.81
	c2.88,0.03,5.64-0.71,8.14-2.04c3.29-1.75,6.53-3.63,9.62-5.71c3.83-2.58,7.48-5.41,11.21-8.13c2.42-1.77,4.9-3.4,7.89-4.09
	c0.29-0.06,0.67-0.56,0.68-0.87c0.07-2.07,0.05-4.14,0.08-6.21c0.01-0.6-0.17-0.9-0.82-0.86c-0.56,0.03-1.11,0-1.67,0
	c-1.7,0-1.69,0-2.04,1.7c-0.04,0.21-0.17,0.48-0.34,0.56c-1.67,0.81-3.36,1.59-5.06,2.38c0-3.35,0-6.67,0-10.17
	c5.09,0,10.08,0,15.28,0c0,4.07,0,8.24,0,12.54c5.2,0.26,9.66,1.72,12.5,6.22c1.7,2.7,2.16,5.67,1.75,8.82
	c-0.83,6.58-5.79,10.73-14.2,11.65c0,4.21,0,8.44,0,12.79c-5.23,0-10.22,0-15.35,0c0-0.42,0-0.81,0-1.2
	c0.03-5.17,0.08-10.35,0.07-15.52c0-0.85,0.27-1.38,0.96-1.87c1.42-1.01,2.79-2.11,4.39-3.34c0,5.53,0,10.85,0,16.24
	c1.6,0,3,0,4.54,0c0-0.5,0-0.93,0-1.35c0-5.61,0-11.23,0-16.84c0-1.7,0.3-2.12,1.96-2.54c0.53-0.13,1.1-0.14,1.65-0.17
	c0.56-0.02,1.1-0.01,1.85-0.01c0,2.67,0,5.31,0,7.91c5.16,0.91,9.69-4.38,8.29-9.42c-1.1-3.93-4.5-6.08-9.05-5.69
	c-3.48,0.29-6.58,1.52-9.5,3.49C50.4,49,42.27,54.3,34.15,59.62c-0.76,0.5-1.09,0.98-1.06,1.89c0.07,2.18,0.02,4.37,0.02,6.67
	c1.4,0,2.81,0,4.22,0c0.04-0.06,0.13-0.13,0.12-0.18c-0.38-1.98,0.6-2.93,2.39-3.47c1.01-0.3,1.92-0.92,3-1.46
	c0.04,0.34,0.1,0.6,0.1,0.84c-0.02,3.02-0.02,6.06-0.1,9.08c-0.01,0.4-0.41,0.8-0.63,1.2c-4.86,0-9.71,0-14.57,0
	c0-4.29,0-8.58,0-12.92c-0.87-0.1-1.41-0.18-1.96-0.23c-5.73-0.52-10.39-4.12-11.98-9.29c-0.25-0.79-0.42-1.6-0.62-2.4
	C13.06,48.3,13.06,47.27,13.06,46.23z"/>
</svg>
