<?xml version="1.0" encoding="utf-8"?>
<!-- Generator: Adobe Illustrator 25.0.0, SVG Export Plug-In . SVG Version: 6.00 Build 0)  -->
<svg version="1.1" id="图层_1" xmlns="http://www.w3.org/2000/svg" xmlns:xlink="http://www.w3.org/1999/xlink" x="0px" y="0px"
	 viewBox="0 0 256 256" style="enable-background:new 0 0 256 256;" xml:space="preserve">
<style type="text/css">
	.st0{fill:url(#SVGID_1_);}
</style>
<linearGradient id="SVGID_1_" gradientUnits="userSpaceOnUse" x1="128" y1="38.8252" x2="128" y2="221.1748" gradientTransform="matrix(1 0 0 -1 0 258)">
	<stop  offset="0" style="stop-color:#F56020"/>
	<stop  offset="1" style="stop-color:#FFC700"/>
</linearGradient>
<path class="st0" d="M227.8,88l-9-13.2l-11.3-16.6l-10.6,17.1L166.1,125l-10.6,17.1l11.3,16.6l10.6-17.1l30.8-49.7l9,13.2
	l-30.8,49.7l-10.6,17.1l-8.4,13.6l-9-13.2l-11.3-16.6l-8-11.7l22.2-32.5l-22.9-51.2L128,36.8l-10.4,23.4l-22.9,51.2l22.2,32.5
	l-8,11.7l-11.3,16.6l-9,13.2l-8.4-13.6l-10.6-17.1L38.9,105l9-13.2l30.8,49.7l10.6,17.1l11.3-16.6l-10.6-17.1L59.2,75.2L48.6,58.1
	L37.3,74.7l-9,13.2L17,104.6l10.6,17.1l30.8,49.7l10.6,17.1l8.4,13.6l10.6,17.1l11.3-16.6l9-13.2l11.3-16.6l8.5-12.5l8.5,12.5
	l11.3,16.6l9,13.2l11.3,16.6l10.6-17.1l8.4-13.6l10.6-17.1l30.8-49.7l10.6-17.1L227.8,88z M115.7,109.5l7-15.7l0,0l5.4-11.4
	l5.4,11.4l0,0l7,15.7L128,127.6L115.7,109.5z"/>
</svg>
