<?xml version="1.0" encoding="utf-8"?>
<!-- Generator: Adobe Illustrator 23.0.2, SVG Export Plug-In . SVG Version: 6.00 Build 0)  -->
<svg version="1.1" id="图层_1" xmlns="http://www.w3.org/2000/svg" xmlns:xlink="http://www.w3.org/1999/xlink" x="0px" y="0px"
	 viewBox="0 0 96 96" style="enable-background:new 0 0 96 96;" xml:space="preserve">
<style type="text/css">
	.st0{fill:none;}
	.st1{fill:#1BA27A;}
	.st2{fill:#FFFFFF;}
</style>
<rect class="st0" width="96" height="96"/>
<g>
	<path class="st1" d="M96,48c0,26.51-21.49,48-48,48S0,74.51,0,48S21.49,0,48,0S96,21.49,96,48"/>
	<path class="st2" d="M70.53,24.2H25.08v10.97h17.24v16.13h10.97V35.18h17.24V24.2z"/>
	<path class="st2" d="M47.91,53.02c-14.26,0-25.82-2.26-25.82-5.04c0-2.78,11.56-5.04,25.82-5.04c14.26,0,25.82,2.26,25.82,5.04
		C73.73,50.77,62.17,53.02,47.91,53.02 M76.9,48.82c0-3.59-12.98-6.5-28.99-6.5s-28.99,2.91-28.99,6.5c0,3.16,10.07,5.8,23.4,6.38
		v23.15h10.97V55.21C66.73,54.65,76.9,52,76.9,48.82"/>
</g>
</svg>
