<?xml version="1.0" encoding="utf-8"?>
<!-- Generator: Adobe Illustrator 24.0.1, SVG Export Plug-In . SVG Version: 6.00 Build 0)  -->
<svg version="1.1" id="图层_1" xmlns="http://www.w3.org/2000/svg" xmlns:xlink="http://www.w3.org/1999/xlink" x="0px" y="0px"
	 viewBox="0 0 512 512" style="enable-background:new 0 0 512 512;" xml:space="preserve">
<style type="text/css">
	.st0{fill:url(#SVGID_1_);}
</style>
<linearGradient id="SVGID_1_" gradientUnits="userSpaceOnUse" x1="256" y1="430.255" x2="256" y2="81.745">
	<stop  offset="0" style="stop-color:#F56020"/>
	<stop  offset="1" style="stop-color:#FFC700"/>
</linearGradient>
<path class="st0" d="M446.7,179.5l-17.2-25.2l-21.6-31.8l-20.2,32.7l-58.8,95l-20.2,32.7l21.6,31.8l20.2-32.7l58.8-95l17.2,25.2
	l-58.8,95l-20.2,32.7l-16.1,26l-17.2-25.2l-21.6-31.8l-15.3-22.4l42.4-62.2l-43.7-97.8L256,81.7l-19.9,44.7l-43.7,97.8l42.4,62.2
	l-15.3,22.4l-21.6,31.8l-17.2,25.2l-16.1-26l-20.2-32.7l-58.8-95l17.2-25.2l58.8,95l20.2,32.7l21.6-31.8l-20.2-32.7l-58.8-95
	l-20.2-32.7l-21.6,31.8l-17.2,25.2l-21.6,31.8l20.2,32.7l58.8,95l20.2,32.7l16.1,26l20.2,32.7l21.6-31.8l17.2-25.2l21.6-31.8
	l16.3-23.9l16.3,23.9l21.6,31.8l17.2,25.2l21.6,31.8l20.2-32.7l16.1-26l20.2-32.7l58.8-95l20.2-32.7L446.7,179.5z M232.4,220.6
	l13.3-30l0,0l10.3-21.8l10.3,21.8l0,0l13.3,30L256,255.3L232.4,220.6z"/>
</svg>
